<?xml version="1.0" encoding="UTF-8" standalone="no"?>
<svg
   xmlns:dc="http://purl.org/dc/elements/1.1/"
   xmlns:cc="http://creativecommons.org/ns#"
   xmlns:rdf="http://www.w3.org/1999/02/22-rdf-syntax-ns#"
   xmlns:svg="http://www.w3.org/2000/svg"
   xmlns="http://www.w3.org/2000/svg"
   xmlns:sodipodi="http://sodipodi.sourceforge.net/DTD/sodipodi-0.dtd"
   xmlns:inkscape="http://www.inkscape.org/namespaces/inkscape"
   version="1.1"
   id="svg2"
   xml:space="preserve"
   width="2666.6667"
   height="2666.6667"
   viewBox="0 0 2666.6667 2666.6667"
   sodipodi:docname="nft-seeklogo.com.eps"><metadata
     id="metadata8"><rdf:RDF><cc:Work
         rdf:about=""><dc:format>image/svg+xml</dc:format><dc:type
           rdf:resource="http://purl.org/dc/dcmitype/StillImage" /></cc:Work></rdf:RDF></metadata><defs
     id="defs6"><clipPath
       clipPathUnits="userSpaceOnUse"
       id="clipPath24"><path
         d="m 7148.95,9861.5 c -240.91,776.4 -796.1,2570.6 -796.1,2613.4 L 5781.6,12152.8 V 7570.7 l 571.25,-328.2 V 10424 l 1002.72,-3758.8 486.16,-279.5 v 7073.7 l -686.71,-376.8 z"
         id="path22" /></clipPath><radialGradient
       fx="0"
       fy="0"
       cx="0"
       cy="0"
       r="1"
       gradientUnits="userSpaceOnUse"
       gradientTransform="matrix(6107.64,0,0,-6107.64,9987.51,9741.7)"
       spreadMethod="pad"
       id="radialGradient30"><stop
         style="stop-opacity:1;stop-color:#3fc9a8"
         offset="0"
         id="stop26" /><stop
         style="stop-opacity:1;stop-color:#1ca2c4"
         offset="1"
         id="stop28" /></radialGradient><clipPath
       clipPathUnits="userSpaceOnUse"
       id="clipPath40"><path
         d="m 10000.8,14048.9 1620.9,-942 370.7,577.3 -1991.6,1166.8 -1575.67,-941.9 V 6081.8 l 644.17,-425.4 v 3950.1 h 2400.4 v 796.1 H 9069.3 v 3117.5 z"
         id="path38" /></clipPath><radialGradient
       fx="0"
       fy="0"
       cx="0"
       cy="0"
       r="1"
       gradientUnits="userSpaceOnUse"
       gradientTransform="matrix(6107.64,0,0,-6107.64,9987.51,9741.7)"
       spreadMethod="pad"
       id="radialGradient46"><stop
         style="stop-opacity:1;stop-color:#3fc9a8"
         offset="0"
         id="stop42" /><stop
         style="stop-opacity:1;stop-color:#1ca2c4"
         offset="1"
         id="stop44" /></radialGradient><clipPath
       clipPathUnits="userSpaceOnUse"
       id="clipPath56"><path
         d="m 11955.9,12924.6 856.9,-559.1 V 6634.8 l 711,395 v 4946.8 l 881.2,-601.7 v 753.6 l -2096.6,1324.8 z"
         id="path54" /></clipPath><radialGradient
       fx="0"
       fy="0"
       cx="0"
       cy="0"
       r="1"
       gradientUnits="userSpaceOnUse"
       gradientTransform="matrix(6107.64,0,0,-6107.64,9987.51,9741.7)"
       spreadMethod="pad"
       id="radialGradient62"><stop
         style="stop-opacity:1;stop-color:#3fc9a8"
         offset="0"
         id="stop58" /><stop
         style="stop-opacity:1;stop-color:#1ca2c4"
         offset="1"
         id="stop60" /></radialGradient><clipPath
       clipPathUnits="userSpaceOnUse"
       id="clipPath72"><path
         d="m 5222.51,7242.5 v 5524.1 l 4776.72,2766.6 4778.27,-2765.1 v -5524 L 10008.4,4479 Z m 4776.72,9007.8 -5420.4,-3143.4 v -6229 l 5429.57,-3128.2 5412.8,3129.7 v 6229 z"
         id="path70" /></clipPath><radialGradient
       fx="0"
       fy="0"
       cx="0"
       cy="0"
       r="1"
       gradientUnits="userSpaceOnUse"
       gradientTransform="matrix(6107.64,0,0,-6107.64,9987.51,9741.7)"
       spreadMethod="pad"
       id="radialGradient78"><stop
         style="stop-opacity:1;stop-color:#3fc9a8"
         offset="0"
         id="stop74" /><stop
         style="stop-opacity:1;stop-color:#1ca2c4"
         offset="1"
         id="stop76" /></radialGradient></defs><sodipodi:namedview
     pagecolor="#ffffff"
     bordercolor="#666666"
     borderopacity="1"
     objecttolerance="10"
     gridtolerance="10"
     guidetolerance="10"
     inkscape:pageopacity="0"
     inkscape:pageshadow="2"
     inkscape:window-width="640"
     inkscape:window-height="480"
     id="namedview4" /><g
     id="g10"
     inkscape:groupmode="layer"
     inkscape:label="ink_ext_XXXXXX"
     transform="matrix(1.3333333,0,0,-1.3333333,0,2666.6667)"><g
       id="g12"
       transform="scale(0.1)"><path
         d="M 20000,0 H 0 V 20000 H 20000 V 0"
         style="fill:#ffffff;fill-opacity:1;fill-rule:nonzero;stroke:none"
         id="path14" /><path
         d="m 14405,11374.9 -881.2,601.7 V 7029.8 l -711,-395 v 5730.7 l -856.9,559.1 352.5,528.7 2096.6,-1324.8 z m -2935.3,-972.3 V 9606.5 H 9069.3 V 5656.4 l -644.17,425.4 v 7827.3 l 1575.67,941.9 1991.6,-1166.8 -370.7,-577.3 -1620.9,942 -931.5,-528.8 V 10402.6 Z M 7841.73,6385.7 7355.57,6665.2 6352.85,10424 V 7242.5 l -571.25,328.2 v 4582.1 l 571.25,322.1 c 0,-42.8 555.19,-1837 796.1,-2613.4 l 6.07,3221.1 686.71,376.8 z M 14777.5,12768.1 9999.23,15533.2 5222.51,12766.6 V 7242.5 L 10008.4,4479 14777.5,7244.1 v 5524"
         style="fill:#ffffff;fill-opacity:1;fill-rule:nonzero;stroke:none"
         id="path16" /><g
         id="g18"><g
           id="g20"
           clip-path="url(#clipPath24)"><path
             d="m 7148.95,9861.5 c -240.91,776.4 -796.1,2570.6 -796.1,2613.4 L 5781.6,12152.8 V 7570.7 l 571.25,-328.2 V 10424 l 1002.72,-3758.8 486.16,-279.5 v 7073.7 l -686.71,-376.8 -6.07,-3221.1"
             style="fill:url(#radialGradient30);fill-opacity:1;fill-rule:nonzero;stroke:none"
             id="path32" /></g></g><g
         id="g34"><g
           id="g36"
           clip-path="url(#clipPath40)"><path
             d="m 10000.8,14048.9 1620.9,-942 370.7,577.3 -1991.6,1166.8 -1575.67,-941.9 V 6081.8 l 644.17,-425.4 v 3950.1 h 2400.4 v 796.1 H 9069.3 v 3117.5 l 931.5,528.8"
             style="fill:url(#radialGradient46);fill-opacity:1;fill-rule:nonzero;stroke:none"
             id="path48" /></g></g><g
         id="g50"><g
           id="g52"
           clip-path="url(#clipPath56)"><path
             d="m 11955.9,12924.6 856.9,-559.1 V 6634.8 l 711,395 v 4946.8 l 881.2,-601.7 v 753.6 l -2096.6,1324.8 -352.5,-528.7"
             style="fill:url(#radialGradient62);fill-opacity:1;fill-rule:nonzero;stroke:none"
             id="path64" /></g></g><g
         id="g66"><g
           id="g68"
           clip-path="url(#clipPath72)"><path
             d="m 5222.51,7242.5 v 5524.1 l 4776.72,2766.6 4778.27,-2765.1 v -5524 L 10008.4,4479 Z m 4776.72,9007.8 -5420.4,-3143.4 v -6229 l 5429.57,-3128.2 5412.8,3129.7 v 6229 l -5421.97,3141.9"
             style="fill:url(#radialGradient78);fill-opacity:1;fill-rule:nonzero;stroke:none"
             id="path80" /></g></g></g></g></svg>
